<?xml version="1.0" encoding="iso-8859-1"?>
<!-- Generator: Adobe Illustrator 16.0.0, SVG Export Plug-In . SVG Version: 6.00 Build 0)  -->
<!DOCTYPE svg PUBLIC "-//W3C//DTD SVG 1.1//EN" "http://www.w3.org/Graphics/SVG/1.1/DTD/svg11.dtd">
<svg version="1.1" id="Layer_1" xmlns="http://www.w3.org/2000/svg" xmlns:xlink="http://www.w3.org/1999/xlink" x="0px" y="0px"
	 width="283.46px" height="283.46px" viewBox="0 0 283.46 283.46" style="enable-background:new 0 0 283.46 283.46;"
	 xml:space="preserve">
<path style="fill-rule:evenodd;clip-rule:evenodd;fill:#FFFFFF;stroke:#FFFFFF;stroke-miterlimit:10;" d="M238.486,211.008
	c-13.268,25.553-42.529,48.453-77.385,52.738c-18.5,2.273-36.902,1.588-54.876-3.375c-37.694-10.408-59.82-36.104-68.714-73.273
	c-7.673-32.072-7.675-64.419,1.605-96.31c12.334-42.386,44.619-67.563,88.602-70.949c19.902-1.532,39.328-0.435,58.107,6.076
	c35.176,12.196,54.221,38.622,61.889,73.801C250.727,113.537,251.754,185.455,238.486,211.008z M170.553,126.06
	c-0.393-10.962-1.787-22.336-4.311-32.983c-1.871-7.889-7.141-13.702-15.553-16.055c-16.43-4.594-29.89,3.679-33.803,21.439
	c-4.697,21.324-4.785,42.99-2.912,64.58c0.889,10.26,3.204,20.506,5.949,30.461c1.964,7.117,7.617,11.496,14.977,13.439
	c17.318,3.619,30.65-1.049,33.65-14.715C172.189,176.566,171.887,163.393,170.553,126.06z"/>
</svg>
