<?xml version="1.0" encoding="utf-8"?>
<!-- Generator: Adobe Illustrator 16.0.0, SVG Export Plug-In . SVG Version: 6.00 Build 0)  -->
<!DOCTYPE svg PUBLIC "-//W3C//DTD SVG 1.1//EN" "http://www.w3.org/Graphics/SVG/1.1/DTD/svg11.dtd">
<svg version="1.1" id="Layer_1" xmlns="http://www.w3.org/2000/svg" xmlns:xlink="http://www.w3.org/1999/xlink" x="0px" y="0px"
	 width="283.46px" height="283.46px" viewBox="0 0 283.46 283.46" enable-background="new 0 0 283.46 283.46" xml:space="preserve">
<g>
	<path fill="#FFFFFF" d="M237.28,259.486H35.392c2.312-19.934,9.334-38.686,21.064-56.255c11.729-17.566,33.729-38.3,66.002-62.202
		c19.714-14.646,32.324-25.772,37.833-33.372c5.506-7.6,8.261-14.812,8.261-21.643c0-7.377-2.727-13.684-8.178-18.917
		c-5.452-5.23-12.309-7.848-20.569-7.848c-8.591,0-15.612,2.7-21.064,8.096c-5.452,5.397-9.115,14.926-10.986,28.582l-67.406-5.452
		c2.644-18.942,7.488-33.729,14.538-44.359c7.048-10.627,16.988-18.777,29.821-24.451c12.829-5.671,30.59-8.508,53.28-8.508
		c23.68,0,42.101,2.7,55.264,8.095c13.16,5.398,23.514,13.687,31.06,24.864c7.543,11.18,11.316,23.708,11.316,37.585
		c0,14.761-4.323,28.858-12.969,42.294c-8.647,13.439-24.368,28.197-47.168,44.277c-13.547,9.362-22.608,15.917-27.177,19.66
		c-4.572,3.745-9.941,8.647-16.108,14.703H237.28V259.486z"/>
</g>
</svg>
